<?xml version="1.0" encoding="UTF-8"?>
<svg xmlns="http://www.w3.org/2000/svg" viewBox="0 0 1200 600"><rect width="1200" height="600" fill="#0C1A14"/><g transform="translate(0 -120) rotate(0) scale(2.350) translate(-50 -54)"><path d="M26 30 L40 30 L50 52 L60 30 L74 30 L50 78 Z M44 55 L56 55 L50 69 Z" fill="#34E5A0" fill-rule="evenodd"/><path d="M44 55 L56 55 L50 69 Z" fill="none" stroke="#34E5A0" stroke-width="1.6"/></g><g transform="translate(0 0) rotate(180) scale(2.350) translate(-50 -54)"><path d="M26 30 L40 30 L50 52 L60 30 L74 30 L50 78 Z M44 55 L56 55 L50 69 Z" fill="#34E5A0" fill-rule="evenodd"/><path d="M44 55 L56 55 L50 69 Z" fill="none" stroke="#34E5A0" stroke-width="1.6"/></g><g transform="translate(0 120) rotate(0) scale(2.350) translate(-50 -54)"><path d="M26 30 L40 30 L50 52 L60 30 L74 30 L50 78 Z M44 55 L56 55 L50 69 Z" fill="#34E5A0" fill-rule="evenodd"/><path d="M44 55 L56 55 L50 69 Z" fill="none" stroke="#34E5A0" stroke-width="1.6"/></g><g transform="translate(0 240) rotate(180) scale(2.350) translate(-50 -54)"><path d="M26 30 L40 30 L50 52 L60 30 L74 30 L50 78 Z M44 55 L56 55 L50 69 Z" fill="#34E5A0" fill-rule="evenodd"/><path d="M44 55 L56 55 L50 69 Z" fill="none" stroke="#34E5A0" stroke-width="1.6"/></g><g transform="translate(0 360) rotate(0) scale(2.350) translate(-50 -54)"><path d="M26 30 L40 30 L50 52 L60 30 L74 30 L50 78 Z M44 55 L56 55 L50 69 Z" fill="#34E5A0" fill-rule="evenodd"/><path d="M44 55 L56 55 L50 69 Z" fill="none" stroke="#34E5A0" stroke-width="1.6"/></g><g transform="translate(0 480) rotate(180) scale(2.350) translate(-50 -54)"><path d="M26 30 L40 30 L50 52 L60 30 L74 30 L50 78 Z M44 55 L56 55 L50 69 Z" fill="#34E5A0" fill-rule="evenodd"/><path d="M44 55 L56 55 L50 69 Z" fill="none" stroke="#34E5A0" stroke-width="1.6"/></g><g transform="translate(0 600) rotate(0) scale(2.350) translate(-50 -54)"><path d="M26 30 L40 30 L50 52 L60 30 L74 30 L50 78 Z M44 55 L56 55 L50 69 Z" fill="#34E5A0" fill-rule="evenodd"/><path d="M44 55 L56 55 L50 69 Z" fill="none" stroke="#34E5A0" stroke-width="1.6"/></g><g transform="translate(84 -120) rotate(180) scale(2.350) translate(-50 -54)"><path d="M26 30 L40 30 L50 52 L60 30 L74 30 L50 78 Z M44 55 L56 55 L50 69 Z" fill="#34E5A0" fill-rule="evenodd"/><path d="M44 55 L56 55 L50 69 Z" fill="none" stroke="#34E5A0" stroke-width="1.6"/></g><g transform="translate(84 0) rotate(0) scale(2.350) translate(-50 -54)"><path d="M26 30 L40 30 L50 52 L60 30 L74 30 L50 78 Z M44 55 L56 55 L50 69 Z" fill="#34E5A0" fill-rule="evenodd"/><path d="M44 55 L56 55 L50 69 Z" fill="none" stroke="#34E5A0" stroke-width="1.6"/></g><g transform="translate(84 120) rotate(180) scale(2.350) translate(-50 -54)"><path d="M26 30 L40 30 L50 52 L60 30 L74 30 L50 78 Z M44 55 L56 55 L50 69 Z" fill="#34E5A0" fill-rule="evenodd"/><path d="M44 55 L56 55 L50 69 Z" fill="none" stroke="#34E5A0" stroke-width="1.6"/></g><g transform="translate(84 240) rotate(0) scale(2.350) translate(-50 -54)"><path d="M26 30 L40 30 L50 52 L60 30 L74 30 L50 78 Z M44 55 L56 55 L50 69 Z" fill="#34E5A0" fill-rule="evenodd"/><path d="M44 55 L56 55 L50 69 Z" fill="none" stroke="#34E5A0" stroke-width="1.6"/></g><g transform="translate(84 360) rotate(180) scale(2.350) translate(-50 -54)"><path d="M26 30 L40 30 L50 52 L60 30 L74 30 L50 78 Z M44 55 L56 55 L50 69 Z" fill="#34E5A0" fill-rule="evenodd"/><path d="M44 55 L56 55 L50 69 Z" fill="none" stroke="#34E5A0" stroke-width="1.6"/></g><g transform="translate(84 480) rotate(0) scale(2.350) translate(-50 -54)"><path d="M26 30 L40 30 L50 52 L60 30 L74 30 L50 78 Z M44 55 L56 55 L50 69 Z" fill="#34E5A0" fill-rule="evenodd"/><path d="M44 55 L56 55 L50 69 Z" fill="none" stroke="#34E5A0" stroke-width="1.6"/></g><g transform="translate(84 600) rotate(180) scale(2.350) translate(-50 -54)"><path d="M26 30 L40 30 L50 52 L60 30 L74 30 L50 78 Z M44 55 L56 55 L50 69 Z" fill="#34E5A0" fill-rule="evenodd"/><path d="M44 55 L56 55 L50 69 Z" fill="none" stroke="#34E5A0" stroke-width="1.6"/></g><g transform="translate(168 -120) rotate(0) scale(2.350) translate(-50 -54)"><path d="M26 30 L40 30 L50 52 L60 30 L74 30 L50 78 Z M44 55 L56 55 L50 69 Z" fill="#34E5A0" fill-rule="evenodd"/><path d="M44 55 L56 55 L50 69 Z" fill="none" stroke="#34E5A0" stroke-width="1.6"/></g><g transform="translate(168 0) rotate(180) scale(2.350) translate(-50 -54)"><path d="M26 30 L40 30 L50 52 L60 30 L74 30 L50 78 Z M44 55 L56 55 L50 69 Z" fill="#34E5A0" fill-rule="evenodd"/><path d="M44 55 L56 55 L50 69 Z" fill="none" stroke="#34E5A0" stroke-width="1.6"/></g><g transform="translate(168 120) rotate(0) scale(2.350) translate(-50 -54)"><path d="M26 30 L40 30 L50 52 L60 30 L74 30 L50 78 Z M44 55 L56 55 L50 69 Z" fill="#34E5A0" fill-rule="evenodd"/><path d="M44 55 L56 55 L50 69 Z" fill="none" stroke="#34E5A0" stroke-width="1.6"/></g><g transform="translate(168 240) rotate(180) scale(2.350) translate(-50 -54)"><path d="M26 30 L40 30 L50 52 L60 30 L74 30 L50 78 Z M44 55 L56 55 L50 69 Z" fill="#34E5A0" fill-rule="evenodd"/><path d="M44 55 L56 55 L50 69 Z" fill="none" stroke="#34E5A0" stroke-width="1.6"/></g><g transform="translate(168 360) rotate(0) scale(2.350) translate(-50 -54)"><path d="M26 30 L40 30 L50 52 L60 30 L74 30 L50 78 Z M44 55 L56 55 L50 69 Z" fill="#34E5A0" fill-rule="evenodd"/><path d="M44 55 L56 55 L50 69 Z" fill="none" stroke="#34E5A0" stroke-width="1.6"/></g><g transform="translate(168 480) rotate(180) scale(2.350) translate(-50 -54)"><path d="M26 30 L40 30 L50 52 L60 30 L74 30 L50 78 Z M44 55 L56 55 L50 69 Z" fill="#34E5A0" fill-rule="evenodd"/><path d="M44 55 L56 55 L50 69 Z" fill="none" stroke="#34E5A0" stroke-width="1.6"/></g><g transform="translate(168 600) rotate(0) scale(2.350) translate(-50 -54)"><path d="M26 30 L40 30 L50 52 L60 30 L74 30 L50 78 Z M44 55 L56 55 L50 69 Z" fill="#34E5A0" fill-rule="evenodd"/><path d="M44 55 L56 55 L50 69 Z" fill="none" stroke="#34E5A0" stroke-width="1.6"/></g><g transform="translate(252 -120) rotate(180) scale(2.350) translate(-50 -54)"><path d="M26 30 L40 30 L50 52 L60 30 L74 30 L50 78 Z M44 55 L56 55 L50 69 Z" fill="#34E5A0" fill-rule="evenodd"/><path d="M44 55 L56 55 L50 69 Z" fill="none" stroke="#34E5A0" stroke-width="1.6"/></g><g transform="translate(252 0) rotate(0) scale(2.350) translate(-50 -54)"><path d="M26 30 L40 30 L50 52 L60 30 L74 30 L50 78 Z M44 55 L56 55 L50 69 Z" fill="#34E5A0" fill-rule="evenodd"/><path d="M44 55 L56 55 L50 69 Z" fill="none" stroke="#34E5A0" stroke-width="1.6"/></g><g transform="translate(252 120) rotate(180) scale(2.350) translate(-50 -54)"><path d="M26 30 L40 30 L50 52 L60 30 L74 30 L50 78 Z M44 55 L56 55 L50 69 Z" fill="#34E5A0" fill-rule="evenodd"/><path d="M44 55 L56 55 L50 69 Z" fill="none" stroke="#34E5A0" stroke-width="1.6"/></g><g transform="translate(252 240) rotate(0) scale(2.350) translate(-50 -54)"><path d="M26 30 L40 30 L50 52 L60 30 L74 30 L50 78 Z M44 55 L56 55 L50 69 Z" fill="#34E5A0" fill-rule="evenodd"/><path d="M44 55 L56 55 L50 69 Z" fill="none" stroke="#34E5A0" stroke-width="1.6"/></g><g transform="translate(252 360) rotate(180) scale(2.350) translate(-50 -54)"><path d="M26 30 L40 30 L50 52 L60 30 L74 30 L50 78 Z M44 55 L56 55 L50 69 Z" fill="#34E5A0" fill-rule="evenodd"/><path d="M44 55 L56 55 L50 69 Z" fill="none" stroke="#34E5A0" stroke-width="1.6"/></g><g transform="translate(252 480) rotate(0) scale(2.350) translate(-50 -54)"><path d="M26 30 L40 30 L50 52 L60 30 L74 30 L50 78 Z M44 55 L56 55 L50 69 Z" fill="#34E5A0" fill-rule="evenodd"/><path d="M44 55 L56 55 L50 69 Z" fill="none" stroke="#34E5A0" stroke-width="1.6"/></g><g transform="translate(252 600) rotate(180) scale(2.350) translate(-50 -54)"><path d="M26 30 L40 30 L50 52 L60 30 L74 30 L50 78 Z M44 55 L56 55 L50 69 Z" fill="#34E5A0" fill-rule="evenodd"/><path d="M44 55 L56 55 L50 69 Z" fill="none" stroke="#34E5A0" stroke-width="1.6"/></g><g transform="translate(336 -120) rotate(0) scale(2.350) translate(-50 -54)"><path d="M26 30 L40 30 L50 52 L60 30 L74 30 L50 78 Z M44 55 L56 55 L50 69 Z" fill="#34E5A0" fill-rule="evenodd"/><path d="M44 55 L56 55 L50 69 Z" fill="none" stroke="#34E5A0" stroke-width="1.6"/></g><g transform="translate(336 0) rotate(180) scale(2.350) translate(-50 -54)"><path d="M26 30 L40 30 L50 52 L60 30 L74 30 L50 78 Z M44 55 L56 55 L50 69 Z" fill="#34E5A0" fill-rule="evenodd"/><path d="M44 55 L56 55 L50 69 Z" fill="none" stroke="#34E5A0" stroke-width="1.6"/></g><g transform="translate(336 120) rotate(0) scale(2.350) translate(-50 -54)"><path d="M26 30 L40 30 L50 52 L60 30 L74 30 L50 78 Z M44 55 L56 55 L50 69 Z" fill="#34E5A0" fill-rule="evenodd"/><path d="M44 55 L56 55 L50 69 Z" fill="none" stroke="#34E5A0" stroke-width="1.6"/></g><g transform="translate(336 240) rotate(180) scale(2.350) translate(-50 -54)"><path d="M26 30 L40 30 L50 52 L60 30 L74 30 L50 78 Z M44 55 L56 55 L50 69 Z" fill="#34E5A0" fill-rule="evenodd"/><path d="M44 55 L56 55 L50 69 Z" fill="none" stroke="#34E5A0" stroke-width="1.6"/></g><g transform="translate(336 360) rotate(0) scale(2.350) translate(-50 -54)"><path d="M26 30 L40 30 L50 52 L60 30 L74 30 L50 78 Z M44 55 L56 55 L50 69 Z" fill="#34E5A0" fill-rule="evenodd"/><path d="M44 55 L56 55 L50 69 Z" fill="none" stroke="#34E5A0" stroke-width="1.6"/></g><g transform="translate(336 480) rotate(180) scale(2.350) translate(-50 -54)"><path d="M26 30 L40 30 L50 52 L60 30 L74 30 L50 78 Z M44 55 L56 55 L50 69 Z" fill="#34E5A0" fill-rule="evenodd"/><path d="M44 55 L56 55 L50 69 Z" fill="none" stroke="#34E5A0" stroke-width="1.6"/></g><g transform="translate(336 600) rotate(0) scale(2.350) translate(-50 -54)"><path d="M26 30 L40 30 L50 52 L60 30 L74 30 L50 78 Z M44 55 L56 55 L50 69 Z" fill="#34E5A0" fill-rule="evenodd"/><path d="M44 55 L56 55 L50 69 Z" fill="none" stroke="#34E5A0" stroke-width="1.6"/></g><g transform="translate(420 -120) rotate(180) scale(2.350) translate(-50 -54)"><path d="M26 30 L40 30 L50 52 L60 30 L74 30 L50 78 Z M44 55 L56 55 L50 69 Z" fill="#34E5A0" fill-rule="evenodd"/><path d="M44 55 L56 55 L50 69 Z" fill="none" stroke="#34E5A0" stroke-width="1.6"/></g><g transform="translate(420 0) rotate(0) scale(2.350) translate(-50 -54)"><path d="M26 30 L40 30 L50 52 L60 30 L74 30 L50 78 Z M44 55 L56 55 L50 69 Z" fill="#34E5A0" fill-rule="evenodd"/><path d="M44 55 L56 55 L50 69 Z" fill="none" stroke="#34E5A0" stroke-width="1.6"/></g><g transform="translate(420 120) rotate(180) scale(2.350) translate(-50 -54)"><path d="M26 30 L40 30 L50 52 L60 30 L74 30 L50 78 Z M44 55 L56 55 L50 69 Z" fill="#34E5A0" fill-rule="evenodd"/><path d="M44 55 L56 55 L50 69 Z" fill="none" stroke="#34E5A0" stroke-width="1.6"/></g><g transform="translate(420 240) rotate(0) scale(2.350) translate(-50 -54)"><path d="M26 30 L40 30 L50 52 L60 30 L74 30 L50 78 Z M44 55 L56 55 L50 69 Z" fill="#34E5A0" fill-rule="evenodd"/><path d="M44 55 L56 55 L50 69 Z" fill="none" stroke="#34E5A0" stroke-width="1.6"/></g><g transform="translate(420 360) rotate(180) scale(2.350) translate(-50 -54)"><path d="M26 30 L40 30 L50 52 L60 30 L74 30 L50 78 Z M44 55 L56 55 L50 69 Z" fill="#34E5A0" fill-rule="evenodd"/><path d="M44 55 L56 55 L50 69 Z" fill="none" stroke="#34E5A0" stroke-width="1.6"/></g><g transform="translate(420 480) rotate(0) scale(2.350) translate(-50 -54)"><path d="M26 30 L40 30 L50 52 L60 30 L74 30 L50 78 Z M44 55 L56 55 L50 69 Z" fill="#34E5A0" fill-rule="evenodd"/><path d="M44 55 L56 55 L50 69 Z" fill="none" stroke="#34E5A0" stroke-width="1.6"/></g><g transform="translate(420 600) rotate(180) scale(2.350) translate(-50 -54)"><path d="M26 30 L40 30 L50 52 L60 30 L74 30 L50 78 Z M44 55 L56 55 L50 69 Z" fill="#34E5A0" fill-rule="evenodd"/><path d="M44 55 L56 55 L50 69 Z" fill="none" stroke="#34E5A0" stroke-width="1.6"/></g><g transform="translate(504 -120) rotate(0) scale(2.350) translate(-50 -54)"><path d="M26 30 L40 30 L50 52 L60 30 L74 30 L50 78 Z M44 55 L56 55 L50 69 Z" fill="#34E5A0" fill-rule="evenodd"/><path d="M44 55 L56 55 L50 69 Z" fill="none" stroke="#34E5A0" stroke-width="1.6"/></g><g transform="translate(504 0) rotate(180) scale(2.350) translate(-50 -54)"><path d="M26 30 L40 30 L50 52 L60 30 L74 30 L50 78 Z M44 55 L56 55 L50 69 Z" fill="#34E5A0" fill-rule="evenodd"/><path d="M44 55 L56 55 L50 69 Z" fill="none" stroke="#34E5A0" stroke-width="1.6"/></g><g transform="translate(504 120) rotate(0) scale(2.350) translate(-50 -54)"><path d="M26 30 L40 30 L50 52 L60 30 L74 30 L50 78 Z M44 55 L56 55 L50 69 Z" fill="#34E5A0" fill-rule="evenodd"/><path d="M44 55 L56 55 L50 69 Z" fill="none" stroke="#34E5A0" stroke-width="1.6"/></g><g transform="translate(504 240) rotate(180) scale(2.350) translate(-50 -54)"><path d="M26 30 L40 30 L50 52 L60 30 L74 30 L50 78 Z M44 55 L56 55 L50 69 Z" fill="#34E5A0" fill-rule="evenodd"/><path d="M44 55 L56 55 L50 69 Z" fill="none" stroke="#34E5A0" stroke-width="1.6"/></g><g transform="translate(504 360) rotate(0) scale(2.350) translate(-50 -54)"><path d="M26 30 L40 30 L50 52 L60 30 L74 30 L50 78 Z M44 55 L56 55 L50 69 Z" fill="#34E5A0" fill-rule="evenodd"/><path d="M44 55 L56 55 L50 69 Z" fill="none" stroke="#34E5A0" stroke-width="1.6"/></g><g transform="translate(504 480) rotate(180) scale(2.350) translate(-50 -54)"><path d="M26 30 L40 30 L50 52 L60 30 L74 30 L50 78 Z M44 55 L56 55 L50 69 Z" fill="#34E5A0" fill-rule="evenodd"/><path d="M44 55 L56 55 L50 69 Z" fill="none" stroke="#34E5A0" stroke-width="1.6"/></g><g transform="translate(504 600) rotate(0) scale(2.350) translate(-50 -54)"><path d="M26 30 L40 30 L50 52 L60 30 L74 30 L50 78 Z M44 55 L56 55 L50 69 Z" fill="#34E5A0" fill-rule="evenodd"/><path d="M44 55 L56 55 L50 69 Z" fill="none" stroke="#34E5A0" stroke-width="1.6"/></g><g transform="translate(588 -120) rotate(180) scale(2.350) translate(-50 -54)"><path d="M26 30 L40 30 L50 52 L60 30 L74 30 L50 78 Z M44 55 L56 55 L50 69 Z" fill="#34E5A0" fill-rule="evenodd"/><path d="M44 55 L56 55 L50 69 Z" fill="none" stroke="#34E5A0" stroke-width="1.6"/></g><g transform="translate(588 0) rotate(0) scale(2.350) translate(-50 -54)"><path d="M26 30 L40 30 L50 52 L60 30 L74 30 L50 78 Z M44 55 L56 55 L50 69 Z" fill="#34E5A0" fill-rule="evenodd"/><path d="M44 55 L56 55 L50 69 Z" fill="none" stroke="#34E5A0" stroke-width="1.6"/></g><g transform="translate(588 120) rotate(180) scale(2.350) translate(-50 -54)"><path d="M26 30 L40 30 L50 52 L60 30 L74 30 L50 78 Z M44 55 L56 55 L50 69 Z" fill="#34E5A0" fill-rule="evenodd"/><path d="M44 55 L56 55 L50 69 Z" fill="none" stroke="#34E5A0" stroke-width="1.6"/></g><g transform="translate(588 240) rotate(0) scale(2.350) translate(-50 -54)"><path d="M26 30 L40 30 L50 52 L60 30 L74 30 L50 78 Z M44 55 L56 55 L50 69 Z" fill="#34E5A0" fill-rule="evenodd"/><path d="M44 55 L56 55 L50 69 Z" fill="none" stroke="#34E5A0" stroke-width="1.6"/></g><g transform="translate(588 360) rotate(180) scale(2.350) translate(-50 -54)"><path d="M26 30 L40 30 L50 52 L60 30 L74 30 L50 78 Z M44 55 L56 55 L50 69 Z" fill="#34E5A0" fill-rule="evenodd"/><path d="M44 55 L56 55 L50 69 Z" fill="none" stroke="#34E5A0" stroke-width="1.6"/></g><g transform="translate(588 480) rotate(0) scale(2.350) translate(-50 -54)"><path d="M26 30 L40 30 L50 52 L60 30 L74 30 L50 78 Z M44 55 L56 55 L50 69 Z" fill="#34E5A0" fill-rule="evenodd"/><path d="M44 55 L56 55 L50 69 Z" fill="none" stroke="#34E5A0" stroke-width="1.6"/></g><g transform="translate(588 600) rotate(180) scale(2.350) translate(-50 -54)"><path d="M26 30 L40 30 L50 52 L60 30 L74 30 L50 78 Z M44 55 L56 55 L50 69 Z" fill="#34E5A0" fill-rule="evenodd"/><path d="M44 55 L56 55 L50 69 Z" fill="none" stroke="#34E5A0" stroke-width="1.6"/></g><g transform="translate(672 -120) rotate(0) scale(2.350) translate(-50 -54)"><path d="M26 30 L40 30 L50 52 L60 30 L74 30 L50 78 Z M44 55 L56 55 L50 69 Z" fill="#34E5A0" fill-rule="evenodd"/><path d="M44 55 L56 55 L50 69 Z" fill="none" stroke="#34E5A0" stroke-width="1.6"/></g><g transform="translate(672 0) rotate(180) scale(2.350) translate(-50 -54)"><path d="M26 30 L40 30 L50 52 L60 30 L74 30 L50 78 Z M44 55 L56 55 L50 69 Z" fill="#34E5A0" fill-rule="evenodd"/><path d="M44 55 L56 55 L50 69 Z" fill="none" stroke="#34E5A0" stroke-width="1.6"/></g><g transform="translate(672 120) rotate(0) scale(2.350) translate(-50 -54)"><path d="M26 30 L40 30 L50 52 L60 30 L74 30 L50 78 Z M44 55 L56 55 L50 69 Z" fill="#34E5A0" fill-rule="evenodd"/><path d="M44 55 L56 55 L50 69 Z" fill="none" stroke="#34E5A0" stroke-width="1.6"/></g><g transform="translate(672 240) rotate(180) scale(2.350) translate(-50 -54)"><path d="M26 30 L40 30 L50 52 L60 30 L74 30 L50 78 Z M44 55 L56 55 L50 69 Z" fill="#34E5A0" fill-rule="evenodd"/><path d="M44 55 L56 55 L50 69 Z" fill="none" stroke="#34E5A0" stroke-width="1.6"/></g><g transform="translate(672 360) rotate(0) scale(2.350) translate(-50 -54)"><path d="M26 30 L40 30 L50 52 L60 30 L74 30 L50 78 Z M44 55 L56 55 L50 69 Z" fill="#34E5A0" fill-rule="evenodd"/><path d="M44 55 L56 55 L50 69 Z" fill="none" stroke="#34E5A0" stroke-width="1.6"/></g><g transform="translate(672 480) rotate(180) scale(2.350) translate(-50 -54)"><path d="M26 30 L40 30 L50 52 L60 30 L74 30 L50 78 Z M44 55 L56 55 L50 69 Z" fill="#34E5A0" fill-rule="evenodd"/><path d="M44 55 L56 55 L50 69 Z" fill="none" stroke="#34E5A0" stroke-width="1.6"/></g><g transform="translate(672 600) rotate(0) scale(2.350) translate(-50 -54)"><path d="M26 30 L40 30 L50 52 L60 30 L74 30 L50 78 Z M44 55 L56 55 L50 69 Z" fill="#34E5A0" fill-rule="evenodd"/><path d="M44 55 L56 55 L50 69 Z" fill="none" stroke="#34E5A0" stroke-width="1.6"/></g><g transform="translate(756 -120) rotate(180) scale(2.350) translate(-50 -54)"><path d="M26 30 L40 30 L50 52 L60 30 L74 30 L50 78 Z M44 55 L56 55 L50 69 Z" fill="#34E5A0" fill-rule="evenodd"/><path d="M44 55 L56 55 L50 69 Z" fill="none" stroke="#34E5A0" stroke-width="1.6"/></g><g transform="translate(756 0) rotate(0) scale(2.350) translate(-50 -54)"><path d="M26 30 L40 30 L50 52 L60 30 L74 30 L50 78 Z M44 55 L56 55 L50 69 Z" fill="#34E5A0" fill-rule="evenodd"/><path d="M44 55 L56 55 L50 69 Z" fill="none" stroke="#34E5A0" stroke-width="1.6"/></g><g transform="translate(756 120) rotate(180) scale(2.350) translate(-50 -54)"><path d="M26 30 L40 30 L50 52 L60 30 L74 30 L50 78 Z M44 55 L56 55 L50 69 Z" fill="#34E5A0" fill-rule="evenodd"/><path d="M44 55 L56 55 L50 69 Z" fill="none" stroke="#34E5A0" stroke-width="1.6"/></g><g transform="translate(756 240) rotate(0) scale(2.350) translate(-50 -54)"><path d="M26 30 L40 30 L50 52 L60 30 L74 30 L50 78 Z M44 55 L56 55 L50 69 Z" fill="#34E5A0" fill-rule="evenodd"/><path d="M44 55 L56 55 L50 69 Z" fill="none" stroke="#34E5A0" stroke-width="1.6"/></g><g transform="translate(756 360) rotate(180) scale(2.350) translate(-50 -54)"><path d="M26 30 L40 30 L50 52 L60 30 L74 30 L50 78 Z M44 55 L56 55 L50 69 Z" fill="#34E5A0" fill-rule="evenodd"/><path d="M44 55 L56 55 L50 69 Z" fill="none" stroke="#34E5A0" stroke-width="1.6"/></g><g transform="translate(756 480) rotate(0) scale(2.350) translate(-50 -54)"><path d="M26 30 L40 30 L50 52 L60 30 L74 30 L50 78 Z M44 55 L56 55 L50 69 Z" fill="#34E5A0" fill-rule="evenodd"/><path d="M44 55 L56 55 L50 69 Z" fill="none" stroke="#34E5A0" stroke-width="1.6"/></g><g transform="translate(756 600) rotate(180) scale(2.350) translate(-50 -54)"><path d="M26 30 L40 30 L50 52 L60 30 L74 30 L50 78 Z M44 55 L56 55 L50 69 Z" fill="#34E5A0" fill-rule="evenodd"/><path d="M44 55 L56 55 L50 69 Z" fill="none" stroke="#34E5A0" stroke-width="1.6"/></g><g transform="translate(840 -120) rotate(0) scale(2.350) translate(-50 -54)"><path d="M26 30 L40 30 L50 52 L60 30 L74 30 L50 78 Z M44 55 L56 55 L50 69 Z" fill="#34E5A0" fill-rule="evenodd"/><path d="M44 55 L56 55 L50 69 Z" fill="none" stroke="#34E5A0" stroke-width="1.6"/></g><g transform="translate(840 0) rotate(180) scale(2.350) translate(-50 -54)"><path d="M26 30 L40 30 L50 52 L60 30 L74 30 L50 78 Z M44 55 L56 55 L50 69 Z" fill="#34E5A0" fill-rule="evenodd"/><path d="M44 55 L56 55 L50 69 Z" fill="none" stroke="#34E5A0" stroke-width="1.6"/></g><g transform="translate(840 120) rotate(0) scale(2.350) translate(-50 -54)"><path d="M26 30 L40 30 L50 52 L60 30 L74 30 L50 78 Z M44 55 L56 55 L50 69 Z" fill="#34E5A0" fill-rule="evenodd"/><path d="M44 55 L56 55 L50 69 Z" fill="none" stroke="#34E5A0" stroke-width="1.6"/></g><g transform="translate(840 240) rotate(180) scale(2.350) translate(-50 -54)"><path d="M26 30 L40 30 L50 52 L60 30 L74 30 L50 78 Z M44 55 L56 55 L50 69 Z" fill="#34E5A0" fill-rule="evenodd"/><path d="M44 55 L56 55 L50 69 Z" fill="none" stroke="#34E5A0" stroke-width="1.6"/></g><g transform="translate(840 360) rotate(0) scale(2.350) translate(-50 -54)"><path d="M26 30 L40 30 L50 52 L60 30 L74 30 L50 78 Z M44 55 L56 55 L50 69 Z" fill="#34E5A0" fill-rule="evenodd"/><path d="M44 55 L56 55 L50 69 Z" fill="none" stroke="#34E5A0" stroke-width="1.6"/></g><g transform="translate(840 480) rotate(180) scale(2.350) translate(-50 -54)"><path d="M26 30 L40 30 L50 52 L60 30 L74 30 L50 78 Z M44 55 L56 55 L50 69 Z" fill="#34E5A0" fill-rule="evenodd"/><path d="M44 55 L56 55 L50 69 Z" fill="none" stroke="#34E5A0" stroke-width="1.6"/></g><g transform="translate(840 600) rotate(0) scale(2.350) translate(-50 -54)"><path d="M26 30 L40 30 L50 52 L60 30 L74 30 L50 78 Z M44 55 L56 55 L50 69 Z" fill="#34E5A0" fill-rule="evenodd"/><path d="M44 55 L56 55 L50 69 Z" fill="none" stroke="#34E5A0" stroke-width="1.6"/></g><g transform="translate(924 -120) rotate(180) scale(2.350) translate(-50 -54)"><path d="M26 30 L40 30 L50 52 L60 30 L74 30 L50 78 Z M44 55 L56 55 L50 69 Z" fill="#34E5A0" fill-rule="evenodd"/><path d="M44 55 L56 55 L50 69 Z" fill="none" stroke="#34E5A0" stroke-width="1.6"/></g><g transform="translate(924 0) rotate(0) scale(2.350) translate(-50 -54)"><path d="M26 30 L40 30 L50 52 L60 30 L74 30 L50 78 Z M44 55 L56 55 L50 69 Z" fill="#34E5A0" fill-rule="evenodd"/><path d="M44 55 L56 55 L50 69 Z" fill="none" stroke="#34E5A0" stroke-width="1.6"/></g><g transform="translate(924 120) rotate(180) scale(2.350) translate(-50 -54)"><path d="M26 30 L40 30 L50 52 L60 30 L74 30 L50 78 Z M44 55 L56 55 L50 69 Z" fill="#34E5A0" fill-rule="evenodd"/><path d="M44 55 L56 55 L50 69 Z" fill="none" stroke="#34E5A0" stroke-width="1.6"/></g><g transform="translate(924 240) rotate(0) scale(2.350) translate(-50 -54)"><path d="M26 30 L40 30 L50 52 L60 30 L74 30 L50 78 Z M44 55 L56 55 L50 69 Z" fill="#34E5A0" fill-rule="evenodd"/><path d="M44 55 L56 55 L50 69 Z" fill="none" stroke="#34E5A0" stroke-width="1.6"/></g><g transform="translate(924 360) rotate(180) scale(2.350) translate(-50 -54)"><path d="M26 30 L40 30 L50 52 L60 30 L74 30 L50 78 Z M44 55 L56 55 L50 69 Z" fill="#34E5A0" fill-rule="evenodd"/><path d="M44 55 L56 55 L50 69 Z" fill="none" stroke="#34E5A0" stroke-width="1.6"/></g><g transform="translate(924 480) rotate(0) scale(2.350) translate(-50 -54)"><path d="M26 30 L40 30 L50 52 L60 30 L74 30 L50 78 Z M44 55 L56 55 L50 69 Z" fill="#34E5A0" fill-rule="evenodd"/><path d="M44 55 L56 55 L50 69 Z" fill="none" stroke="#34E5A0" stroke-width="1.6"/></g><g transform="translate(924 600) rotate(180) scale(2.350) translate(-50 -54)"><path d="M26 30 L40 30 L50 52 L60 30 L74 30 L50 78 Z M44 55 L56 55 L50 69 Z" fill="#34E5A0" fill-rule="evenodd"/><path d="M44 55 L56 55 L50 69 Z" fill="none" stroke="#34E5A0" stroke-width="1.6"/></g><g transform="translate(1008 -120) rotate(0) scale(2.350) translate(-50 -54)"><path d="M26 30 L40 30 L50 52 L60 30 L74 30 L50 78 Z M44 55 L56 55 L50 69 Z" fill="#34E5A0" fill-rule="evenodd"/><path d="M44 55 L56 55 L50 69 Z" fill="none" stroke="#34E5A0" stroke-width="1.6"/></g><g transform="translate(1008 0) rotate(180) scale(2.350) translate(-50 -54)"><path d="M26 30 L40 30 L50 52 L60 30 L74 30 L50 78 Z M44 55 L56 55 L50 69 Z" fill="#34E5A0" fill-rule="evenodd"/><path d="M44 55 L56 55 L50 69 Z" fill="none" stroke="#34E5A0" stroke-width="1.6"/></g><g transform="translate(1008 120) rotate(0) scale(2.350) translate(-50 -54)"><path d="M26 30 L40 30 L50 52 L60 30 L74 30 L50 78 Z M44 55 L56 55 L50 69 Z" fill="#34E5A0" fill-rule="evenodd"/><path d="M44 55 L56 55 L50 69 Z" fill="none" stroke="#34E5A0" stroke-width="1.6"/></g><g transform="translate(1008 240) rotate(180) scale(2.350) translate(-50 -54)"><path d="M26 30 L40 30 L50 52 L60 30 L74 30 L50 78 Z M44 55 L56 55 L50 69 Z" fill="#34E5A0" fill-rule="evenodd"/><path d="M44 55 L56 55 L50 69 Z" fill="none" stroke="#34E5A0" stroke-width="1.6"/></g><g transform="translate(1008 360) rotate(0) scale(2.350) translate(-50 -54)"><path d="M26 30 L40 30 L50 52 L60 30 L74 30 L50 78 Z M44 55 L56 55 L50 69 Z" fill="#34E5A0" fill-rule="evenodd"/><path d="M44 55 L56 55 L50 69 Z" fill="none" stroke="#34E5A0" stroke-width="1.6"/></g><g transform="translate(1008 480) rotate(180) scale(2.350) translate(-50 -54)"><path d="M26 30 L40 30 L50 52 L60 30 L74 30 L50 78 Z M44 55 L56 55 L50 69 Z" fill="#34E5A0" fill-rule="evenodd"/><path d="M44 55 L56 55 L50 69 Z" fill="none" stroke="#34E5A0" stroke-width="1.6"/></g><g transform="translate(1008 600) rotate(0) scale(2.350) translate(-50 -54)"><path d="M26 30 L40 30 L50 52 L60 30 L74 30 L50 78 Z M44 55 L56 55 L50 69 Z" fill="#34E5A0" fill-rule="evenodd"/><path d="M44 55 L56 55 L50 69 Z" fill="none" stroke="#34E5A0" stroke-width="1.6"/></g><g transform="translate(1092 -120) rotate(180) scale(2.350) translate(-50 -54)"><path d="M26 30 L40 30 L50 52 L60 30 L74 30 L50 78 Z M44 55 L56 55 L50 69 Z" fill="#34E5A0" fill-rule="evenodd"/><path d="M44 55 L56 55 L50 69 Z" fill="none" stroke="#34E5A0" stroke-width="1.6"/></g><g transform="translate(1092 0) rotate(0) scale(2.350) translate(-50 -54)"><path d="M26 30 L40 30 L50 52 L60 30 L74 30 L50 78 Z M44 55 L56 55 L50 69 Z" fill="#34E5A0" fill-rule="evenodd"/><path d="M44 55 L56 55 L50 69 Z" fill="none" stroke="#34E5A0" stroke-width="1.6"/></g><g transform="translate(1092 120) rotate(180) scale(2.350) translate(-50 -54)"><path d="M26 30 L40 30 L50 52 L60 30 L74 30 L50 78 Z M44 55 L56 55 L50 69 Z" fill="#34E5A0" fill-rule="evenodd"/><path d="M44 55 L56 55 L50 69 Z" fill="none" stroke="#34E5A0" stroke-width="1.6"/></g><g transform="translate(1092 240) rotate(0) scale(2.350) translate(-50 -54)"><path d="M26 30 L40 30 L50 52 L60 30 L74 30 L50 78 Z M44 55 L56 55 L50 69 Z" fill="#34E5A0" fill-rule="evenodd"/><path d="M44 55 L56 55 L50 69 Z" fill="none" stroke="#34E5A0" stroke-width="1.6"/></g><g transform="translate(1092 360) rotate(180) scale(2.350) translate(-50 -54)"><path d="M26 30 L40 30 L50 52 L60 30 L74 30 L50 78 Z M44 55 L56 55 L50 69 Z" fill="#34E5A0" fill-rule="evenodd"/><path d="M44 55 L56 55 L50 69 Z" fill="none" stroke="#34E5A0" stroke-width="1.6"/></g><g transform="translate(1092 480) rotate(0) scale(2.350) translate(-50 -54)"><path d="M26 30 L40 30 L50 52 L60 30 L74 30 L50 78 Z M44 55 L56 55 L50 69 Z" fill="#34E5A0" fill-rule="evenodd"/><path d="M44 55 L56 55 L50 69 Z" fill="none" stroke="#34E5A0" stroke-width="1.6"/></g><g transform="translate(1092 600) rotate(180) scale(2.350) translate(-50 -54)"><path d="M26 30 L40 30 L50 52 L60 30 L74 30 L50 78 Z M44 55 L56 55 L50 69 Z" fill="#34E5A0" fill-rule="evenodd"/><path d="M44 55 L56 55 L50 69 Z" fill="none" stroke="#34E5A0" stroke-width="1.6"/></g><g transform="translate(1176 -120) rotate(0) scale(2.350) translate(-50 -54)"><path d="M26 30 L40 30 L50 52 L60 30 L74 30 L50 78 Z M44 55 L56 55 L50 69 Z" fill="#34E5A0" fill-rule="evenodd"/><path d="M44 55 L56 55 L50 69 Z" fill="none" stroke="#34E5A0" stroke-width="1.6"/></g><g transform="translate(1176 0) rotate(180) scale(2.350) translate(-50 -54)"><path d="M26 30 L40 30 L50 52 L60 30 L74 30 L50 78 Z M44 55 L56 55 L50 69 Z" fill="#34E5A0" fill-rule="evenodd"/><path d="M44 55 L56 55 L50 69 Z" fill="none" stroke="#34E5A0" stroke-width="1.6"/></g><g transform="translate(1176 120) rotate(0) scale(2.350) translate(-50 -54)"><path d="M26 30 L40 30 L50 52 L60 30 L74 30 L50 78 Z M44 55 L56 55 L50 69 Z" fill="#34E5A0" fill-rule="evenodd"/><path d="M44 55 L56 55 L50 69 Z" fill="none" stroke="#34E5A0" stroke-width="1.6"/></g><g transform="translate(1176 240) rotate(180) scale(2.350) translate(-50 -54)"><path d="M26 30 L40 30 L50 52 L60 30 L74 30 L50 78 Z M44 55 L56 55 L50 69 Z" fill="#34E5A0" fill-rule="evenodd"/><path d="M44 55 L56 55 L50 69 Z" fill="none" stroke="#34E5A0" stroke-width="1.6"/></g><g transform="translate(1176 360) rotate(0) scale(2.350) translate(-50 -54)"><path d="M26 30 L40 30 L50 52 L60 30 L74 30 L50 78 Z M44 55 L56 55 L50 69 Z" fill="#34E5A0" fill-rule="evenodd"/><path d="M44 55 L56 55 L50 69 Z" fill="none" stroke="#34E5A0" stroke-width="1.6"/></g><g transform="translate(1176 480) rotate(180) scale(2.350) translate(-50 -54)"><path d="M26 30 L40 30 L50 52 L60 30 L74 30 L50 78 Z M44 55 L56 55 L50 69 Z" fill="#34E5A0" fill-rule="evenodd"/><path d="M44 55 L56 55 L50 69 Z" fill="none" stroke="#34E5A0" stroke-width="1.6"/></g><g transform="translate(1176 600) rotate(0) scale(2.350) translate(-50 -54)"><path d="M26 30 L40 30 L50 52 L60 30 L74 30 L50 78 Z M44 55 L56 55 L50 69 Z" fill="#34E5A0" fill-rule="evenodd"/><path d="M44 55 L56 55 L50 69 Z" fill="none" stroke="#34E5A0" stroke-width="1.6"/></g><g transform="translate(1260 -120) rotate(180) scale(2.350) translate(-50 -54)"><path d="M26 30 L40 30 L50 52 L60 30 L74 30 L50 78 Z M44 55 L56 55 L50 69 Z" fill="#34E5A0" fill-rule="evenodd"/><path d="M44 55 L56 55 L50 69 Z" fill="none" stroke="#34E5A0" stroke-width="1.6"/></g><g transform="translate(1260 0) rotate(0) scale(2.350) translate(-50 -54)"><path d="M26 30 L40 30 L50 52 L60 30 L74 30 L50 78 Z M44 55 L56 55 L50 69 Z" fill="#34E5A0" fill-rule="evenodd"/><path d="M44 55 L56 55 L50 69 Z" fill="none" stroke="#34E5A0" stroke-width="1.6"/></g><g transform="translate(1260 120) rotate(180) scale(2.350) translate(-50 -54)"><path d="M26 30 L40 30 L50 52 L60 30 L74 30 L50 78 Z M44 55 L56 55 L50 69 Z" fill="#34E5A0" fill-rule="evenodd"/><path d="M44 55 L56 55 L50 69 Z" fill="none" stroke="#34E5A0" stroke-width="1.6"/></g><g transform="translate(1260 240) rotate(0) scale(2.350) translate(-50 -54)"><path d="M26 30 L40 30 L50 52 L60 30 L74 30 L50 78 Z M44 55 L56 55 L50 69 Z" fill="#34E5A0" fill-rule="evenodd"/><path d="M44 55 L56 55 L50 69 Z" fill="none" stroke="#34E5A0" stroke-width="1.6"/></g><g transform="translate(1260 360) rotate(180) scale(2.350) translate(-50 -54)"><path d="M26 30 L40 30 L50 52 L60 30 L74 30 L50 78 Z M44 55 L56 55 L50 69 Z" fill="#34E5A0" fill-rule="evenodd"/><path d="M44 55 L56 55 L50 69 Z" fill="none" stroke="#34E5A0" stroke-width="1.6"/></g><g transform="translate(1260 480) rotate(0) scale(2.350) translate(-50 -54)"><path d="M26 30 L40 30 L50 52 L60 30 L74 30 L50 78 Z M44 55 L56 55 L50 69 Z" fill="#34E5A0" fill-rule="evenodd"/><path d="M44 55 L56 55 L50 69 Z" fill="none" stroke="#34E5A0" stroke-width="1.6"/></g><g transform="translate(1260 600) rotate(180) scale(2.350) translate(-50 -54)"><path d="M26 30 L40 30 L50 52 L60 30 L74 30 L50 78 Z M44 55 L56 55 L50 69 Z" fill="#34E5A0" fill-rule="evenodd"/><path d="M44 55 L56 55 L50 69 Z" fill="none" stroke="#34E5A0" stroke-width="1.6"/></g></svg>